<svg width="159" height="147" viewBox="0 0 159 147" fill="none" xmlns="http://www.w3.org/2000/svg">
<path d="M136.973 69.3917C140.469 65.8899 143.242 61.7321 145.134 57.1559C147.026 52.5797 148 47.6748 148 42.7213C148 37.7678 147.026 32.8629 145.134 28.2867C143.242 23.7105 140.469 19.5527 136.973 16.0509C133.479 12.5474 129.331 9.76825 124.764 7.8721C120.198 5.97595 115.304 5 110.362 5C105.419 5 100.525 5.97595 95.9586 7.8721C91.3925 9.76825 87.2438 12.5474 83.7497 16.0509L76.4982 23.3184L69.2466 16.0509C62.1887 8.97748 52.6162 5.00367 42.6348 5.00367C32.6534 5.00367 23.0809 8.97748 16.023 16.0509C8.96508 23.1243 5 32.718 5 42.7213C5 52.7246 8.96508 62.3183 16.023 69.3917L76.4982 130L84.0576 122.424" stroke="white" stroke-width="10" stroke-linecap="square" stroke-linejoin="round"/>
<line x1="25.1618" y1="74.6338" x2="78.1948" y2="21.6008" stroke="white" stroke-width="10"/>
<path d="M143.852 135.264L132.55 141.774L114.781 110.925L126.083 104.416L143.852 135.264ZM153.155 100.601L126.093 104.376L114.798 110.832L98.6322 129.551L87.7305 51.4012L153.155 100.601Z" fill="white"/>
</svg>
