<svg width="490" height="147" viewBox="0 0 490 147" fill="none" xmlns="http://www.w3.org/2000/svg">
<path d="M136.973 69.3917C140.469 65.8899 143.242 61.7321 145.134 57.1559C147.026 52.5797 148 47.6748 148 42.7213C148 37.7678 147.026 32.8629 145.134 28.2867C143.242 23.7105 140.469 19.5527 136.973 16.0509C133.479 12.5474 129.331 9.76825 124.764 7.8721C120.198 5.97595 115.304 5 110.362 5C105.419 5 100.525 5.97595 95.9586 7.8721C91.3925 9.76825 87.2438 12.5474 83.7497 16.0509L76.4982 23.3184L69.2466 16.0509C62.1887 8.97748 52.6162 5.00367 42.6348 5.00367C32.6534 5.00367 23.0809 8.97748 16.023 16.0509C8.96508 23.1243 5 32.718 5 42.7213C5 52.7246 8.96508 62.3183 16.023 69.3917L76.4982 130L84.0576 122.424" stroke="white" stroke-width="10" stroke-linecap="square" stroke-linejoin="round"/>
<line x1="25.1618" y1="74.6338" x2="78.1948" y2="21.6008" stroke="white" stroke-width="10"/>
<path d="M143.852 135.264L132.55 141.774L114.781 110.925L126.083 104.416L143.852 135.264ZM153.155 100.601L126.093 104.376L114.798 110.832L98.6322 129.551L87.7305 51.4012L153.155 100.601Z" fill="white"/>
<path d="M190.66 38.5042H202.797L215.615 69.777H216.16L228.978 38.5042H241.115V85.0497H231.569V54.7542H231.183L219.137 84.8224H212.637L200.592 54.6406H200.206V85.0497H190.66V38.5042ZM264.95 85.7315C261.359 85.7315 258.268 85.0042 255.677 83.5497C253.101 82.08 251.117 80.0042 249.723 77.3224C248.329 74.6254 247.632 71.436 247.632 67.7542C247.632 64.1633 248.329 61.0118 249.723 58.2997C251.117 55.5876 253.079 53.4739 255.609 51.9588C258.155 50.4436 261.139 49.686 264.564 49.686C266.867 49.686 269.011 50.0573 270.995 50.7997C272.995 51.527 274.738 52.6254 276.223 54.0951C277.723 55.5648 278.889 57.4133 279.723 59.6406C280.556 61.8527 280.973 64.4436 280.973 67.4133V70.0724H251.495V64.0724H271.859C271.859 62.6785 271.556 61.4436 270.95 60.3679C270.344 59.2921 269.503 58.4512 268.427 57.8451C267.367 57.2239 266.132 56.9133 264.723 56.9133C263.253 56.9133 261.95 57.2542 260.814 57.936C259.692 58.6027 258.814 59.5042 258.177 60.6406C257.541 61.7618 257.215 63.0118 257.2 64.3906V70.0951C257.2 71.8224 257.518 73.3148 258.155 74.5724C258.806 75.83 259.723 76.7997 260.905 77.4815C262.086 78.1633 263.488 78.5042 265.109 78.5042C266.185 78.5042 267.17 78.3527 268.064 78.0497C268.958 77.7467 269.723 77.2921 270.359 76.686C270.995 76.08 271.48 75.3376 271.814 74.4588L280.768 75.0497C280.314 77.2012 279.382 79.08 277.973 80.686C276.579 82.277 274.776 83.5194 272.564 84.4133C270.367 85.2921 267.829 85.7315 264.95 85.7315ZM300.155 85.6179C297.503 85.6179 295.101 84.936 292.95 83.5724C290.814 82.1936 289.117 80.1709 287.859 77.5042C286.617 74.8224 285.995 71.5345 285.995 67.6406C285.995 63.6406 286.639 60.3148 287.927 57.6633C289.215 54.9967 290.927 53.0042 293.064 51.686C295.215 50.3527 297.571 49.686 300.132 49.686C302.086 49.686 303.715 50.0194 305.018 50.686C306.336 51.3376 307.397 52.1557 308.2 53.1406C309.018 54.1103 309.639 55.0648 310.064 56.0042H310.359V38.5042H320.018V85.0497H310.473V79.4588H310.064C309.609 80.4285 308.965 81.3906 308.132 82.3451C307.314 83.2845 306.245 84.0648 304.927 84.686C303.624 85.3073 302.033 85.6179 300.155 85.6179ZM303.223 77.9133C304.783 77.9133 306.101 77.4891 307.177 76.6406C308.268 75.777 309.101 74.5724 309.677 73.027C310.268 71.4815 310.564 69.6709 310.564 67.5951C310.564 65.5194 310.276 63.7163 309.7 62.186C309.124 60.6557 308.291 59.4739 307.2 58.6406C306.109 57.8073 304.783 57.3906 303.223 57.3906C301.632 57.3906 300.291 57.8224 299.2 58.686C298.109 59.5497 297.283 60.7467 296.723 62.277C296.162 63.8073 295.882 65.58 295.882 67.5951C295.882 69.6254 296.162 71.4209 296.723 72.9815C297.298 74.527 298.124 75.7391 299.2 76.6179C300.291 77.4815 301.632 77.9133 303.223 77.9133ZM327.978 85.0497V50.1406H337.66V85.0497H327.978ZM332.842 45.6406C331.403 45.6406 330.168 45.1633 329.137 44.2088C328.122 43.2391 327.615 42.08 327.615 40.7315C327.615 39.3982 328.122 38.2542 329.137 37.2997C330.168 36.33 331.403 35.8451 332.842 35.8451C334.281 35.8451 335.509 36.33 336.524 37.2997C337.554 38.2542 338.069 39.3982 338.069 40.7315C338.069 42.08 337.554 43.2391 336.524 44.2088C335.509 45.1633 334.281 45.6406 332.842 45.6406ZM384.643 53.0497H379.007C378.673 51.4285 378.09 50.0042 377.257 48.777C376.439 47.5497 375.439 46.5194 374.257 45.686C373.09 44.8376 371.795 44.2012 370.37 43.777C368.946 43.3527 367.461 43.1406 365.916 43.1406C363.098 43.1406 360.545 43.8527 358.257 45.277C355.984 46.7012 354.173 48.7997 352.825 51.5724C351.492 54.3451 350.825 57.7467 350.825 61.777C350.825 65.8073 351.492 69.2088 352.825 71.9815C354.173 74.7542 355.984 76.8527 358.257 78.277C360.545 79.7012 363.098 80.4133 365.916 80.4133C367.461 80.4133 368.946 80.2012 370.37 79.777C371.795 79.3527 373.09 78.7239 374.257 77.8906C375.439 77.0421 376.439 76.0042 377.257 74.777C378.09 73.5345 378.673 72.1103 379.007 70.5042H384.643C384.219 72.883 383.446 75.0118 382.325 76.8906C381.204 78.7694 379.81 80.3679 378.143 81.686C376.476 82.9891 374.605 83.9815 372.53 84.6633C370.469 85.3451 368.264 85.686 365.916 85.686C361.946 85.686 358.416 84.7163 355.325 82.777C352.234 80.8376 349.802 78.08 348.03 74.5042C346.257 70.9285 345.37 66.686 345.37 61.777C345.37 56.8679 346.257 52.6254 348.03 49.0497C349.802 45.4739 352.234 42.7163 355.325 40.777C358.416 38.8376 361.946 37.8679 365.916 37.8679C368.264 37.8679 370.469 38.2088 372.53 38.8906C374.605 39.5724 376.476 40.5724 378.143 41.8906C379.81 43.1936 381.204 44.7845 382.325 46.6633C383.446 48.527 384.219 50.6557 384.643 53.0497ZM398.387 38.5042V85.0497H393.024V38.5042H398.387ZM408.211 85.0497V50.1406H413.575V85.0497H408.211ZM410.939 44.3224C409.893 44.3224 408.992 43.9663 408.234 43.2542C407.492 42.5421 407.12 41.686 407.12 40.686C407.12 39.686 407.492 38.83 408.234 38.1179C408.992 37.4057 409.893 37.0497 410.939 37.0497C411.984 37.0497 412.878 37.4057 413.62 38.1179C414.378 38.83 414.757 39.686 414.757 40.686C414.757 41.686 414.378 42.5421 413.62 43.2542C412.878 43.9663 411.984 44.3224 410.939 44.3224ZM437.581 85.777C434.308 85.777 431.49 85.0042 429.126 83.4588C426.762 81.9133 424.944 79.7845 423.672 77.0724C422.399 74.3603 421.762 71.2618 421.762 67.777C421.762 64.2315 422.414 61.1027 423.717 58.3906C425.035 55.6633 426.869 53.5345 429.217 52.0042C431.581 50.4588 434.338 49.686 437.49 49.686C439.944 49.686 442.156 50.1406 444.126 51.0497C446.096 51.9588 447.709 53.2315 448.967 54.8679C450.225 56.5042 451.005 58.4133 451.308 60.5951H445.944C445.535 59.0042 444.626 57.5951 443.217 56.3679C441.823 55.1254 439.944 54.5042 437.581 54.5042C435.49 54.5042 433.656 55.0497 432.081 56.1406C430.52 57.2163 429.3 58.7391 428.422 60.7088C427.558 62.6633 427.126 64.9588 427.126 67.5951C427.126 70.2921 427.55 72.6406 428.399 74.6406C429.262 76.6406 430.475 78.1936 432.035 79.2997C433.611 80.4057 435.459 80.9588 437.581 80.9588C438.975 80.9588 440.24 80.7163 441.376 80.2315C442.512 79.7467 443.475 79.0497 444.262 78.1406C445.05 77.2315 445.611 76.1406 445.944 74.8679H451.308C451.005 76.9285 450.255 78.7845 449.058 80.436C447.876 82.0724 446.308 83.3754 444.353 84.3451C442.414 85.2997 440.156 85.777 437.581 85.777ZM464.149 72.3224L464.058 65.686H465.149L480.422 50.1406H487.058L470.785 66.5951H470.331L464.149 72.3224ZM459.149 85.0497V38.5042H464.512V85.0497H459.149ZM481.331 85.0497L467.694 67.777L471.512 64.0497L488.149 85.0497H481.331Z" fill="white"/>
</svg>
