<svg width="298" height="50" viewBox="0 0 298 50" fill="none" xmlns="http://www.w3.org/2000/svg">
<path d="M1.38283e-05 2.65907H12.1364L24.9546 33.9318H25.5L38.3182 2.65907H50.4546V49.2045H40.9091V18.9091H40.5227L28.4773 48.9773H21.9773L9.93183 18.7954H9.54547V49.2045H1.38283e-05V2.65907ZM74.2898 49.8863C70.6989 49.8863 67.608 49.1591 65.0171 47.7045C62.4413 46.2348 60.4565 44.1591 59.0625 41.4773C57.6686 38.7803 56.9716 35.5909 56.9716 31.9091C56.9716 28.3182 57.6686 25.1667 59.0625 22.4545C60.4565 19.7424 62.4186 17.6288 64.9489 16.1136C67.4943 14.5985 70.4792 13.8409 73.9034 13.8409C76.2065 13.8409 78.3504 14.2121 80.3352 14.9545C82.3352 15.6818 84.0777 16.7803 85.5625 18.25C87.0625 19.7197 88.2292 21.5682 89.0625 23.7954C89.8958 26.0076 90.3125 28.5985 90.3125 31.5682V34.2273H60.8352V28.2273H81.1989C81.1989 26.8333 80.8958 25.5985 80.2898 24.5227C79.6837 23.447 78.8428 22.606 77.7671 22C76.7065 21.3788 75.4716 21.0682 74.0625 21.0682C72.5928 21.0682 71.2898 21.4091 70.1534 22.0909C69.0322 22.7576 68.1534 23.6591 67.5171 24.7954C66.8807 25.9166 66.5549 27.1666 66.5398 28.5454V34.25C66.5398 35.9773 66.858 37.4697 67.4943 38.7273C68.1458 39.9848 69.0625 40.9545 70.2443 41.6363C71.4262 42.3182 72.8277 42.6591 74.4489 42.6591C75.5246 42.6591 76.5095 42.5076 77.4034 42.2045C78.2974 41.9015 79.0625 41.447 79.6989 40.8409C80.3352 40.2348 80.8201 39.4924 81.1534 38.6136L90.108 39.2045C89.6534 41.356 88.7216 43.2348 87.3125 44.8409C85.9186 46.4318 84.1155 47.6742 81.9034 48.5682C79.7065 49.447 77.1686 49.8863 74.2898 49.8863ZM109.494 49.7727C106.843 49.7727 104.441 49.0909 102.29 47.7273C100.153 46.3485 98.4565 44.3257 97.1989 41.6591C95.9565 38.9773 95.3352 35.6894 95.3352 31.7954C95.3352 27.7954 95.9792 24.4697 97.2671 21.8182C98.5549 19.1515 100.267 17.1591 102.403 15.8409C104.555 14.5076 106.911 13.8409 109.472 13.8409C111.426 13.8409 113.055 14.1742 114.358 14.8409C115.676 15.4924 116.737 16.3106 117.54 17.2954C118.358 18.2651 118.979 19.2197 119.403 20.1591H119.699V2.65907H129.358V49.2045H119.813V43.6136H119.403C118.949 44.5833 118.305 45.5454 117.472 46.5C116.653 47.4394 115.585 48.2197 114.267 48.8409C112.964 49.4621 111.373 49.7727 109.494 49.7727ZM112.563 42.0682C114.123 42.0682 115.441 41.6439 116.517 40.7954C117.608 39.9318 118.441 38.7273 119.017 37.1818C119.608 35.6363 119.903 33.8257 119.903 31.75C119.903 29.6742 119.616 27.8712 119.04 26.3409C118.464 24.8106 117.631 23.6288 116.54 22.7954C115.449 21.9621 114.123 21.5454 112.563 21.5454C110.972 21.5454 109.631 21.9773 108.54 22.8409C107.449 23.7045 106.623 24.9015 106.063 26.4318C105.502 27.9621 105.222 29.7348 105.222 31.75C105.222 33.7803 105.502 35.5757 106.063 37.1363C106.638 38.6818 107.464 39.8939 108.54 40.7727C109.631 41.6363 110.972 42.0682 112.563 42.0682ZM137.318 49.2045V14.2954H147V49.2045H137.318ZM142.182 9.79544C140.742 9.79544 139.508 9.31816 138.477 8.36362C137.462 7.39392 136.955 6.23483 136.955 4.88634C136.955 3.55301 137.462 2.40907 138.477 1.45453C139.508 0.48483 140.742 -1.90735e-05 142.182 -1.90735e-05C143.621 -1.90735e-05 144.848 0.48483 145.864 1.45453C146.894 2.40907 147.409 3.55301 147.409 4.88634C147.409 6.23483 146.894 7.39392 145.864 8.36362C144.848 9.31816 143.621 9.79544 142.182 9.79544Z" fill="#352B78"/>
<path d="M193.983 17.2045H188.347C188.013 15.5833 187.43 14.1591 186.597 12.9318C185.778 11.7045 184.778 10.6742 183.597 9.84089C182.43 8.99241 181.134 8.35604 179.71 7.9318C178.286 7.50756 176.801 7.29544 175.256 7.29544C172.438 7.29544 169.884 8.00756 167.597 9.4318C165.324 10.856 163.513 12.9545 162.165 15.7273C160.831 18.5 160.165 21.9015 160.165 25.9318C160.165 29.9621 160.831 33.3636 162.165 36.1363C163.513 38.9091 165.324 41.0076 167.597 42.4318C169.884 43.856 172.438 44.5682 175.256 44.5682C176.801 44.5682 178.286 44.356 179.71 43.9318C181.134 43.5076 182.43 42.8788 183.597 42.0454C184.778 41.197 185.778 40.1591 186.597 38.9318C187.43 37.6894 188.013 36.2651 188.347 34.6591H193.983C193.559 37.0379 192.786 39.1666 191.665 41.0454C190.544 42.9242 189.15 44.5227 187.483 45.8409C185.816 47.1439 183.945 48.1363 181.869 48.8182C179.809 49.5 177.604 49.8409 175.256 49.8409C171.286 49.8409 167.756 48.8712 164.665 46.9318C161.574 44.9924 159.142 42.2348 157.369 38.6591C155.597 35.0833 154.71 30.8409 154.71 25.9318C154.71 21.0227 155.597 16.7803 157.369 13.2045C159.142 9.62877 161.574 6.8712 164.665 4.9318C167.756 2.99241 171.286 2.02271 175.256 2.02271C177.604 2.02271 179.809 2.36362 181.869 3.04544C183.945 3.72726 185.816 4.72726 187.483 6.04544C189.15 7.34847 190.544 8.93938 191.665 10.8182C192.786 12.6818 193.559 14.8106 193.983 17.2045ZM207.727 2.65907V49.2045H202.364V2.65907H207.727ZM217.551 49.2045V14.2954H222.915V49.2045H217.551ZM220.278 8.47726C219.233 8.47726 218.331 8.1212 217.574 7.40907C216.831 6.69695 216.46 5.84089 216.46 4.84089C216.46 3.84089 216.831 2.98483 217.574 2.27271C218.331 1.56059 219.233 1.20453 220.278 1.20453C221.324 1.20453 222.218 1.56059 222.96 2.27271C223.718 2.98483 224.097 3.84089 224.097 4.84089C224.097 5.84089 223.718 6.69695 222.96 7.40907C222.218 8.1212 221.324 8.47726 220.278 8.47726ZM246.92 49.9318C243.648 49.9318 240.83 49.1591 238.466 47.6136C236.102 46.0682 234.284 43.9394 233.011 41.2273C231.739 38.5151 231.102 35.4166 231.102 31.9318C231.102 28.3863 231.754 25.2576 233.057 22.5454C234.375 19.8182 236.208 17.6894 238.557 16.1591C240.92 14.6136 243.678 13.8409 246.83 13.8409C249.284 13.8409 251.496 14.2954 253.466 15.2045C255.436 16.1136 257.049 17.3863 258.307 19.0227C259.564 20.6591 260.345 22.5682 260.648 24.75H255.284C254.875 23.1591 253.966 21.75 252.557 20.5227C251.163 19.2803 249.284 18.6591 246.92 18.6591C244.83 18.6591 242.996 19.2045 241.42 20.2954C239.86 21.3712 238.64 22.8939 237.761 24.8636C236.898 26.8182 236.466 29.1136 236.466 31.75C236.466 34.447 236.89 36.7954 237.739 38.7954C238.602 40.7954 239.814 42.3485 241.375 43.4545C242.951 44.5606 244.799 45.1136 246.92 45.1136C248.314 45.1136 249.58 44.8712 250.716 44.3863C251.852 43.9015 252.814 43.2045 253.602 42.2954C254.39 41.3863 254.951 40.2954 255.284 39.0227H260.648C260.345 41.0833 259.595 42.9394 258.398 44.5909C257.216 46.2273 255.648 47.5303 253.693 48.5C251.754 49.4545 249.496 49.9318 246.92 49.9318ZM273.489 36.4773L273.398 29.8409H274.489L289.761 14.2954H296.398L280.125 30.75H279.67L273.489 36.4773ZM268.489 49.2045V2.65907H273.852V49.2045H268.489ZM290.67 49.2045L277.034 31.9318L280.852 28.2045L297.489 49.2045H290.67Z" fill="#FF754C"/>
</svg>
